G04*
G04 #@! TF.GenerationSoftware,Altium Limited,Altium Designer,19.0.9 (268)*
G04*
G04 Layer_Color=65535*
%FSLAX25Y25*%
%MOIN*%
G70*
G01*
G75*
%ADD10C,0.00984*%
%ADD11C,0.00866*%
%ADD12C,0.02362*%
%ADD13C,0.00394*%
%ADD14C,0.00787*%
%ADD15C,0.01181*%
%ADD16C,0.00591*%
%ADD17C,0.01000*%
D10*
X72941Y42528D02*
G03*
X72941Y42528I-500J0D01*
G01*
X86713Y217815D02*
G03*
X86713Y217815I-492J0D01*
G01*
D11*
X94882Y91536D02*
G03*
X94882Y91536I-15748J0D01*
G01*
X30669Y87598D02*
G03*
X30669Y87598I-10000J0D01*
G01*
X47933Y29252D02*
X52658D01*
X47933D02*
X50295Y31614D01*
X52658Y29252D01*
X69134Y109035D02*
X74134D01*
X71634Y106535D02*
Y111535D01*
X25669Y72598D02*
Y77598D01*
X23169Y75098D02*
X28169D01*
X89055Y159898D02*
Y190197D01*
X29213Y159898D02*
Y190197D01*
X89055D01*
X29213Y159898D02*
X89055D01*
X47835Y9583D02*
X52559D01*
X47835D02*
X50197Y11945D01*
X52559Y9583D01*
D12*
X34370Y163874D02*
G03*
X34370Y163874I-1181J0D01*
G01*
D13*
X41437Y43898D02*
Y50984D01*
X28248Y43898D02*
Y50984D01*
X28248Y43898D02*
X33169D01*
X36516D02*
X41437D01*
X36516Y50984D02*
X41437D01*
X28248Y50984D02*
X33169D01*
X18701Y169488D02*
X25394D01*
Y174754D01*
X18701Y169488D02*
Y174754D01*
X25394Y177756D02*
Y183071D01*
X18701D02*
X25394D01*
X18701Y177756D02*
Y183071D01*
X97736Y81791D02*
X104429D01*
Y87057D01*
X97736Y81791D02*
Y87057D01*
X104429Y90059D02*
Y95374D01*
X97736D02*
X104429D01*
X97736Y90059D02*
Y95374D01*
X41339Y35236D02*
Y42323D01*
X28150Y35236D02*
Y42323D01*
X28150Y35236D02*
X33071D01*
X36417D02*
X41339D01*
X36417Y42323D02*
X41339D01*
X28150Y42323D02*
X33071D01*
X105807Y95276D02*
X112894D01*
X105807Y82087D02*
X112894D01*
Y82087D02*
Y87008D01*
Y90354D02*
Y95276D01*
X105807Y90354D02*
Y95276D01*
X105807Y82087D02*
Y87008D01*
X32972Y231201D02*
Y237894D01*
Y231201D02*
X38238D01*
X32972Y237894D02*
X38238D01*
X41240Y231201D02*
X46555D01*
Y231201D02*
Y237894D01*
X41240Y237894D02*
X46555D01*
X69095Y62050D02*
X76181D01*
X69095Y48861D02*
X76181D01*
Y48861D02*
Y53783D01*
Y57129D02*
Y62050D01*
X69095Y57129D02*
Y62050D01*
X69095Y48861D02*
Y53783D01*
X76181Y231102D02*
Y237795D01*
X70915D02*
X76181D01*
X70915Y231102D02*
X76181D01*
X62598Y237795D02*
X67913D01*
X62598Y231102D02*
Y237795D01*
Y231102D02*
X67913D01*
X78150Y62050D02*
X85236D01*
X78150Y48861D02*
X85236D01*
Y48861D02*
Y53783D01*
Y57129D02*
Y62050D01*
X78150Y57129D02*
Y62050D01*
X78150Y48861D02*
Y53783D01*
X60335Y48629D02*
X67027D01*
Y53895D01*
X60335Y48629D02*
Y53895D01*
X67028Y56897D02*
Y62212D01*
X60335D02*
X67027D01*
X60335Y56897D02*
Y62212D01*
X86910Y48629D02*
X93602D01*
Y53895D01*
X86910Y48629D02*
Y53895D01*
X93602Y56897D02*
Y62212D01*
X86910D02*
X93602D01*
X86909Y56897D02*
Y62212D01*
D14*
X77909Y292280D02*
Y314390D01*
Y286990D02*
Y292280D01*
X36319Y286990D02*
X77909D01*
X36319D02*
Y314390D01*
X77909D01*
X87598Y38315D02*
X90551D01*
X66929D02*
X69882D01*
X97638Y20276D02*
Y28937D01*
Y1898D02*
Y7283D01*
X59842Y1898D02*
X97638D01*
X59842D02*
Y7283D01*
Y20276D02*
Y28937D01*
X79331Y208563D02*
Y212106D01*
Y223524D02*
Y227067D01*
X29331Y223524D02*
Y227067D01*
Y208563D02*
Y212106D01*
Y227067D02*
X79331D01*
X29331Y208563D02*
X79331D01*
X14414Y6082D02*
X42457D01*
Y33482D01*
X14414D02*
X42457D01*
X14414Y28193D02*
Y33482D01*
Y6082D02*
Y28193D01*
D15*
X49567Y272756D02*
X49587D01*
D16*
X50689Y278405D02*
X52992D01*
X50689Y275590D02*
Y278405D01*
X62894Y275590D02*
Y278405D01*
X60532D02*
X62894D01*
D17*
X16339Y44488D02*
Y50486D01*
X19338D01*
X20337Y49487D01*
Y47487D01*
X19338Y46488D01*
X16339D01*
X18338D02*
X20337Y44488D01*
X26335Y50486D02*
X22337D01*
Y47487D01*
X24336Y48487D01*
X25336D01*
X26335Y47487D01*
Y45488D01*
X25336Y44488D01*
X23336D01*
X22337Y45488D01*
X16136Y2586D02*
X18235D01*
X17185Y3636D02*
Y1537D01*
X19284Y1012D02*
X20334D01*
X19809D01*
Y4160D01*
X19284Y3636D01*
X24007Y1012D02*
X21908D01*
X24007Y3111D01*
Y3636D01*
X23483Y4160D01*
X22433D01*
X21908Y3636D01*
X33453D02*
X32928Y4160D01*
X31879D01*
X31354Y3636D01*
Y1537D01*
X31879Y1012D01*
X32928D01*
X33453Y1537D01*
Y2586D01*
X32403D01*
X34503Y1012D02*
Y4160D01*
X36602Y1012D01*
Y4160D01*
X37651D02*
Y1012D01*
X39226D01*
X39750Y1537D01*
Y3636D01*
X39226Y4160D01*
X37651D01*
X38221Y319061D02*
X37696Y319586D01*
X36647D01*
X36122Y319061D01*
Y316962D01*
X36647Y316437D01*
X37696D01*
X38221Y316962D01*
Y318011D01*
X37172D01*
X39271Y316437D02*
Y319586D01*
X41370Y316437D01*
Y319586D01*
X42419D02*
Y316437D01*
X43993D01*
X44518Y316962D01*
Y319061D01*
X43993Y319586D01*
X42419D01*
X48716Y316437D02*
X49766D01*
X49241D01*
Y319586D01*
X48716Y319061D01*
X51340Y318011D02*
X53439D01*
X54489Y319586D02*
Y316437D01*
X55538Y317487D01*
X56588Y316437D01*
Y319586D01*
X57637Y316437D02*
X58687D01*
X58162D01*
Y318536D01*
X57637D01*
X60261D02*
Y316437D01*
Y317487D01*
X60786Y318011D01*
X61311Y318536D01*
X61836D01*
X64984Y316437D02*
X63935D01*
X63410Y316962D01*
Y318011D01*
X63935Y318536D01*
X64984D01*
X65509Y318011D01*
Y317487D01*
X63410D01*
X69707Y318011D02*
X71806D01*
X70757Y319061D02*
Y316962D01*
X72856Y316437D02*
X73905D01*
X73380D01*
Y319586D01*
X72856Y319061D01*
X77579Y316437D02*
X75479D01*
X77579Y318536D01*
Y319061D01*
X77054Y319586D01*
X76004D01*
X75479Y319061D01*
X79392Y25191D02*
X77393D01*
X78393D01*
Y20193D01*
X77393Y19193D01*
X76393D01*
X75394Y20193D01*
X81392Y19193D02*
X83391D01*
X82391D01*
Y25191D01*
X81392Y24191D01*
X34994Y117783D02*
Y112785D01*
X35994Y111785D01*
X37993D01*
X38993Y112785D01*
Y117783D01*
X40992Y111785D02*
X42992D01*
X41992D01*
Y117783D01*
X40992Y116784D01*
X23896Y188915D02*
X24896Y189914D01*
Y191914D01*
X23896Y192913D01*
X19897D01*
X18898Y191914D01*
Y189914D01*
X19897Y188915D01*
X18898Y186915D02*
Y184916D01*
Y185916D01*
X24896D01*
X23896Y186915D01*
X102931Y103285D02*
X103931Y104284D01*
Y106284D01*
X102931Y107283D01*
X98933D01*
X97933Y106284D01*
Y104284D01*
X98933Y103285D01*
X97933Y98286D02*
X103931D01*
X100932Y101285D01*
Y97287D01*
X88054Y115431D02*
X87054Y116431D01*
X85055D01*
X84055Y115431D01*
Y111433D01*
X85055Y110433D01*
X87054D01*
X88054Y111433D01*
X90053Y115431D02*
X91053Y116431D01*
X93052D01*
X94052Y115431D01*
Y114432D01*
X93052Y113432D01*
X92053D01*
X93052D01*
X94052Y112432D01*
Y111433D01*
X93052Y110433D01*
X91053D01*
X90053Y111433D01*
X14179Y105294D02*
X13179Y106293D01*
X11180D01*
X10180Y105294D01*
Y101295D01*
X11180Y100295D01*
X13179D01*
X14179Y101295D01*
X20177Y100295D02*
X16178D01*
X20177Y104294D01*
Y105294D01*
X19177Y106293D01*
X17178D01*
X16178Y105294D01*
X17028Y205211D02*
Y200212D01*
X18027Y199213D01*
X20027D01*
X21026Y200212D01*
Y205211D01*
X27024Y199213D02*
X23026D01*
X27024Y203211D01*
Y204211D01*
X26025Y205211D01*
X24025D01*
X23026Y204211D01*
X16339Y35827D02*
Y41825D01*
X19338D01*
X20337Y40825D01*
Y38826D01*
X19338Y37826D01*
X16339D01*
X18338D02*
X20337Y35827D01*
X26335D02*
X22337D01*
X26335Y39825D01*
Y40825D01*
X25336Y41825D01*
X23336D01*
X22337Y40825D01*
X105905Y106890D02*
X111904D01*
Y103891D01*
X110904Y102891D01*
X108905D01*
X107905Y103891D01*
Y106890D01*
Y104890D02*
X105905Y102891D01*
Y100892D02*
Y98892D01*
Y99892D01*
X111904D01*
X110904Y100892D01*
X37712Y246396D02*
X36713Y247395D01*
X34714D01*
X33714Y246396D01*
Y242397D01*
X34714Y241397D01*
X36713D01*
X37712Y242397D01*
X43711Y247395D02*
X39712D01*
Y244396D01*
X41711Y245396D01*
X42711D01*
X43711Y244396D01*
Y242397D01*
X42711Y241397D01*
X40712D01*
X39712Y242397D01*
X84707Y314463D02*
X82708D01*
X83708D01*
Y309464D01*
X82708Y308465D01*
X81708D01*
X80709Y309464D01*
X90705Y308465D02*
X86707D01*
X90705Y312463D01*
Y313463D01*
X89706Y314463D01*
X87706D01*
X86707Y313463D01*
X50591Y206293D02*
X54589Y200295D01*
Y206293D02*
X50591Y200295D01*
X56589D02*
X58588D01*
X57588D01*
Y206293D01*
X56589Y205294D01*
X69488Y73819D02*
X75486D01*
Y70820D01*
X74487Y69820D01*
X72487D01*
X71487Y70820D01*
Y73819D01*
Y71820D02*
X69488Y69820D01*
X74487Y67821D02*
X75486Y66821D01*
Y64822D01*
X74487Y63822D01*
X73487D01*
X72487Y64822D01*
Y65821D01*
Y64822D01*
X71487Y63822D01*
X70488D01*
X69488Y64822D01*
Y66821D01*
X70488Y67821D01*
X68073Y245943D02*
X67074Y246943D01*
X65074D01*
X64075Y245943D01*
Y241945D01*
X65074Y240945D01*
X67074D01*
X68073Y241945D01*
X74072Y246943D02*
X72072Y245943D01*
X70073Y243944D01*
Y241945D01*
X71073Y240945D01*
X73072D01*
X74072Y241945D01*
Y242944D01*
X73072Y243944D01*
X70073D01*
X78642Y73819D02*
X84640D01*
Y70820D01*
X83640Y69820D01*
X81641D01*
X80641Y70820D01*
Y73819D01*
Y71820D02*
X78642Y69820D01*
Y64822D02*
X84640D01*
X81641Y67821D01*
Y63822D01*
X65333Y69919D02*
X66333Y70918D01*
Y72918D01*
X65333Y73917D01*
X61334D01*
X60335Y72918D01*
Y70918D01*
X61334Y69919D01*
X65333Y67919D02*
X66333Y66920D01*
Y64920D01*
X65333Y63921D01*
X64333D01*
X63334Y64920D01*
X62334Y63921D01*
X61334D01*
X60335Y64920D01*
Y66920D01*
X61334Y67919D01*
X62334D01*
X63334Y66920D01*
X64333Y67919D01*
X65333D01*
X63334Y66920D02*
Y64920D01*
X92203Y70017D02*
X93203Y71017D01*
Y73016D01*
X92203Y74016D01*
X88204D01*
X87205Y73016D01*
Y71017D01*
X88204Y70017D01*
X93203Y68018D02*
Y64019D01*
X92203D01*
X88204Y68018D01*
X87205D01*
X7444Y40939D02*
X5444D01*
X6444D01*
Y35941D01*
X5444Y34941D01*
X4445D01*
X3445Y35941D01*
X9443Y39939D02*
X10443Y40939D01*
X12442D01*
X13442Y39939D01*
Y38940D01*
X12442Y37940D01*
X11442D01*
X12442D01*
X13442Y36940D01*
Y35941D01*
X12442Y34941D01*
X10443D01*
X9443Y35941D01*
X39469Y279423D02*
Y273425D01*
X42467D01*
X43467Y274425D01*
Y278424D01*
X42467Y279423D01*
X39469D01*
X45467Y273425D02*
X47466D01*
X46466D01*
Y279423D01*
X45467Y278424D01*
M02*
