M48
;Layer_Color=9474304
;FILE_FORMAT=2:5
INCH,LZ
;TYPE=PLATED
T1F00S00C0.01575
T2F00S00C0.03150
T3F00S00C0.03937
;TYPE=NON_PLATED
T4F00S00C0.03543
%
T01
X0050295Y0007858
X0043602Y0025422
X0078642Y001378
X0080413Y0045866
X0081693Y0068209
X0063681Y0068799
X0050098Y0071653
X0033563Y0056496
X0109449Y0045866
X0101279Y0136319
X0067621Y0143609
X0061614Y0143701
X0016929Y0135236
X0010925Y018002
X0103642Y0183957
X0104035Y0224508
X0099902Y0286024
X0020965Y0297835
X0016732Y0251378
T02
X0020669Y0082598
Y0092598
X0079134Y0099036
Y0084035
T03
X0021654Y0019685
X0035433
X0043307Y030059
X0057087
X0070866
T04
X0070079Y0025197
X0087402
M30
