G04*
G04 #@! TF.GenerationSoftware,Altium Limited,Altium Designer,19.0.9 (268)*
G04*
G04 Layer_Physical_Order=2*
G04 Layer_Color=16711680*
%FSLAX25Y25*%
%MOIN*%
G70*
G01*
G75*
%ADD17C,0.01000*%
%ADD49C,0.01968*%
%ADD50C,0.07480*%
%ADD51R,0.07480X0.07480*%
%ADD52C,0.02362*%
%ADD53C,0.06299*%
%ADD54R,0.06299X0.06299*%
%ADD55C,0.03937*%
G36*
X10198Y319146D02*
X1720Y310668D01*
X1220Y310809D01*
Y319646D01*
X10057D01*
X10198Y319146D01*
D02*
G37*
G36*
X112953Y1220D02*
X1220D01*
Y7778D01*
X1720Y7919D01*
X4967Y4672D01*
X5623Y4233D01*
X6398Y4079D01*
X17520D01*
X18294Y4233D01*
X18950Y4672D01*
X23056Y8778D01*
X23495Y9434D01*
X23649Y10208D01*
Y14945D01*
X26394D01*
Y24425D01*
X23972D01*
Y27308D01*
X40677D01*
X40912Y27033D01*
X40998Y26891D01*
X40710Y26197D01*
X40608Y25422D01*
X40710Y24647D01*
X41009Y23925D01*
X41485Y23304D01*
X42105Y22829D01*
X42827Y22530D01*
X43602Y22427D01*
X44377Y22530D01*
X45099Y22829D01*
X45720Y23304D01*
X46195Y23925D01*
X46494Y24647D01*
X46597Y25422D01*
X46494Y26197D01*
X46195Y26919D01*
X45720Y27539D01*
X45567Y27656D01*
X45472Y28136D01*
X45033Y28793D01*
X43064Y30761D01*
X42408Y31200D01*
X41634Y31354D01*
X23102D01*
X22328Y31200D01*
X21671Y30761D01*
X20518Y29608D01*
X20080Y28952D01*
X19926Y28178D01*
Y24425D01*
X16913D01*
Y14945D01*
X19602D01*
Y11046D01*
X16682Y8125D01*
X7236D01*
X5074Y10287D01*
Y69244D01*
X5074Y308300D01*
X12566Y315792D01*
X66190D01*
X68843Y313138D01*
Y305331D01*
X66126D01*
Y295850D01*
X75606D01*
Y305331D01*
X72889D01*
Y313976D01*
X72735Y314751D01*
X72297Y315407D01*
X68558Y319146D01*
X68699Y319646D01*
X112953D01*
Y1220D01*
D02*
G37*
%LPC*%
G36*
X44291Y305242D02*
Y301575D01*
X47959D01*
X47925Y301828D01*
X47448Y302981D01*
X46688Y303971D01*
X45698Y304731D01*
X44545Y305209D01*
X44291Y305242D01*
D02*
G37*
G36*
X42323D02*
X42070Y305209D01*
X40917Y304731D01*
X39926Y303971D01*
X39167Y302981D01*
X38689Y301828D01*
X38656Y301575D01*
X42323D01*
Y305242D01*
D02*
G37*
G36*
X21949Y300640D02*
Y298819D01*
X23770D01*
X23558Y299332D01*
X23082Y299952D01*
X22462Y300428D01*
X21949Y300640D01*
D02*
G37*
G36*
X19980D02*
X19467Y300428D01*
X18847Y299952D01*
X18372Y299332D01*
X18159Y298819D01*
X19980D01*
Y300640D01*
D02*
G37*
G36*
X47959Y299606D02*
X44291D01*
Y295939D01*
X44545Y295972D01*
X45698Y296450D01*
X46688Y297210D01*
X47448Y298200D01*
X47925Y299353D01*
X47959Y299606D01*
D02*
G37*
G36*
X42323D02*
X38656D01*
X38689Y299353D01*
X39167Y298200D01*
X39926Y297210D01*
X40917Y296450D01*
X42070Y295972D01*
X42323Y295939D01*
Y299606D01*
D02*
G37*
G36*
X57087Y305372D02*
X55849Y305209D01*
X54696Y304731D01*
X53706Y303971D01*
X52946Y302981D01*
X52469Y301828D01*
X52306Y300590D01*
X52469Y299353D01*
X52946Y298200D01*
X53706Y297210D01*
X54696Y296450D01*
X55849Y295972D01*
X57087Y295810D01*
X58324Y295972D01*
X59477Y296450D01*
X60467Y297210D01*
X61227Y298200D01*
X61705Y299353D01*
X61868Y300590D01*
X61705Y301828D01*
X61227Y302981D01*
X60467Y303971D01*
X59477Y304731D01*
X58324Y305209D01*
X57087Y305372D01*
D02*
G37*
G36*
X23770Y296850D02*
X21949D01*
Y295029D01*
X22462Y295242D01*
X23082Y295718D01*
X23558Y296338D01*
X23770Y296850D01*
D02*
G37*
G36*
X19980D02*
X18159D01*
X18372Y296338D01*
X18847Y295718D01*
X19467Y295242D01*
X19980Y295029D01*
Y296850D01*
D02*
G37*
G36*
X100886Y288829D02*
Y287008D01*
X102707D01*
X102495Y287521D01*
X102019Y288141D01*
X101399Y288617D01*
X100886Y288829D01*
D02*
G37*
G36*
X98917D02*
X98405Y288617D01*
X97784Y288141D01*
X97309Y287521D01*
X97096Y287008D01*
X98917D01*
Y288829D01*
D02*
G37*
G36*
X102707Y285039D02*
X100886D01*
Y283218D01*
X101399Y283431D01*
X102019Y283907D01*
X102495Y284527D01*
X102707Y285039D01*
D02*
G37*
G36*
X98917D02*
X97096D01*
X97309Y284527D01*
X97784Y283907D01*
X98405Y283431D01*
X98917Y283218D01*
Y285039D01*
D02*
G37*
G36*
X17717Y254183D02*
Y252362D01*
X19538D01*
X19325Y252875D01*
X18849Y253495D01*
X18229Y253971D01*
X17717Y254183D01*
D02*
G37*
G36*
X15748D02*
X15235Y253971D01*
X14615Y253495D01*
X14139Y252875D01*
X13927Y252362D01*
X15748D01*
Y254183D01*
D02*
G37*
G36*
X19538Y250394D02*
X17717D01*
Y248573D01*
X18229Y248785D01*
X18849Y249261D01*
X19325Y249881D01*
X19538Y250394D01*
D02*
G37*
G36*
X15748D02*
X13927D01*
X14139Y249881D01*
X14615Y249261D01*
X15235Y248785D01*
X15748Y248573D01*
Y250394D01*
D02*
G37*
G36*
X98425Y267293D02*
X96588Y267112D01*
X94821Y266576D01*
X93192Y265706D01*
X91765Y264534D01*
X90593Y263107D01*
X89723Y261479D01*
X89187Y259712D01*
X89006Y257874D01*
X89187Y256036D01*
X89723Y254269D01*
X90593Y252641D01*
X91765Y251214D01*
X93192Y250042D01*
X94821Y249172D01*
X96588Y248636D01*
X98425Y248455D01*
X100263Y248636D01*
X102030Y249172D01*
X103658Y250042D01*
X105086Y251214D01*
X106257Y252641D01*
X107128Y254269D01*
X107664Y256036D01*
X107845Y257874D01*
X107664Y259712D01*
X107128Y261479D01*
X106257Y263107D01*
X105086Y264534D01*
X103658Y265706D01*
X102030Y266576D01*
X100263Y267112D01*
X98425Y267293D01*
D02*
G37*
G36*
X105020Y227313D02*
Y225492D01*
X106841D01*
X106628Y226005D01*
X106153Y226625D01*
X105533Y227101D01*
X105020Y227313D01*
D02*
G37*
G36*
X103051D02*
X102538Y227101D01*
X101918Y226625D01*
X101442Y226005D01*
X101230Y225492D01*
X103051D01*
Y227313D01*
D02*
G37*
G36*
X106841Y223524D02*
X105020D01*
Y221703D01*
X105533Y221915D01*
X106153Y222391D01*
X106628Y223011D01*
X106841Y223524D01*
D02*
G37*
G36*
X103051D02*
X101230D01*
X101442Y223011D01*
X101918Y222391D01*
X102538Y221915D01*
X103051Y221703D01*
Y223524D01*
D02*
G37*
G36*
X104626Y186762D02*
Y184941D01*
X106447D01*
X106235Y185454D01*
X105759Y186074D01*
X105139Y186550D01*
X104626Y186762D01*
D02*
G37*
G36*
X102657D02*
X102145Y186550D01*
X101525Y186074D01*
X101049Y185454D01*
X100836Y184941D01*
X102657D01*
Y186762D01*
D02*
G37*
G36*
X106447Y182972D02*
X104626D01*
Y181151D01*
X105139Y181364D01*
X105759Y181840D01*
X106235Y182460D01*
X106447Y182972D01*
D02*
G37*
G36*
X102657D02*
X100836D01*
X101049Y182460D01*
X101525Y181840D01*
X102145Y181364D01*
X102657Y181151D01*
Y182972D01*
D02*
G37*
G36*
X102264Y139124D02*
Y137303D01*
X104085D01*
X103873Y137816D01*
X103397Y138436D01*
X102777Y138912D01*
X102264Y139124D01*
D02*
G37*
G36*
X100295D02*
X99783Y138912D01*
X99162Y138436D01*
X98686Y137816D01*
X98474Y137303D01*
X100295D01*
Y139124D01*
D02*
G37*
G36*
X17913Y138042D02*
Y136221D01*
X19735D01*
X19522Y136733D01*
X19046Y137353D01*
X18426Y137829D01*
X17913Y138042D01*
D02*
G37*
G36*
X15945D02*
X15432Y137829D01*
X14812Y137353D01*
X14336Y136733D01*
X14124Y136221D01*
X15945D01*
Y138042D01*
D02*
G37*
G36*
X104085Y135335D02*
X102264D01*
Y133513D01*
X102777Y133726D01*
X103397Y134202D01*
X103873Y134822D01*
X104085Y135335D01*
D02*
G37*
G36*
X100295D02*
X98474D01*
X98686Y134822D01*
X99162Y134202D01*
X99783Y133726D01*
X100295Y133513D01*
Y135335D01*
D02*
G37*
G36*
X19735Y134252D02*
X17913D01*
Y132431D01*
X18426Y132643D01*
X19046Y133119D01*
X19522Y133739D01*
X19735Y134252D01*
D02*
G37*
G36*
X15945D02*
X14124D01*
X14336Y133739D01*
X14812Y133119D01*
X15432Y132643D01*
X15945Y132431D01*
Y134252D01*
D02*
G37*
G36*
X83284Y103185D02*
X74984D01*
Y94886D01*
X83284D01*
Y103185D01*
D02*
G37*
G36*
X21654Y96654D02*
Y93583D01*
X24725D01*
X24712Y93682D01*
X24294Y94691D01*
X23629Y95558D01*
X22762Y96223D01*
X21753Y96641D01*
X21654Y96654D01*
D02*
G37*
G36*
X19685Y96654D02*
X19586Y96641D01*
X18577Y96223D01*
X17710Y95558D01*
X17045Y94691D01*
X16626Y93682D01*
X16613Y93583D01*
X19685D01*
Y96654D01*
D02*
G37*
G36*
Y91614D02*
X16613D01*
X16626Y91515D01*
X17045Y90506D01*
X17710Y89639D01*
X18577Y88974D01*
X19586Y88556D01*
X19685Y88543D01*
Y91614D01*
D02*
G37*
G36*
X24725D02*
X21654D01*
Y88543D01*
X21753Y88556D01*
X22762Y88974D01*
X23629Y89639D01*
X24294Y90506D01*
X24712Y91515D01*
X24725Y91614D01*
D02*
G37*
G36*
X80118Y88091D02*
Y85020D01*
X83190D01*
X83177Y85119D01*
X82758Y86128D01*
X82093Y86995D01*
X81227Y87660D01*
X80217Y88078D01*
X80118Y88091D01*
D02*
G37*
G36*
X78150D02*
X78051Y88078D01*
X77041Y87660D01*
X76174Y86995D01*
X75509Y86128D01*
X75091Y85119D01*
X75078Y85020D01*
X78150D01*
Y88091D01*
D02*
G37*
G36*
X83190Y83051D02*
X80118D01*
Y79980D01*
X80217Y79993D01*
X81227Y80411D01*
X82093Y81076D01*
X82758Y81943D01*
X83177Y82952D01*
X83190Y83051D01*
D02*
G37*
G36*
X78150D02*
X75078D01*
X75091Y82952D01*
X75509Y81943D01*
X76174Y81076D01*
X77041Y80411D01*
X78051Y79993D01*
X78150Y79980D01*
Y83051D01*
D02*
G37*
G36*
X10925Y183014D02*
X10150Y182912D01*
X9428Y182613D01*
X8808Y182137D01*
X8332Y181517D01*
X8033Y180795D01*
X7931Y180020D01*
X8033Y179245D01*
X8332Y178523D01*
X8808Y177902D01*
X8902Y177830D01*
Y85630D01*
X9056Y84856D01*
X9495Y84199D01*
X12526Y81168D01*
X13183Y80729D01*
X13957Y80575D01*
X16520D01*
Y78449D01*
X24819D01*
Y86748D01*
X16520D01*
Y84622D01*
X14795D01*
X12948Y86468D01*
Y177830D01*
X13042Y177902D01*
X13518Y178523D01*
X13817Y179245D01*
X13919Y180020D01*
X13817Y180795D01*
X13518Y181517D01*
X13042Y182137D01*
X12422Y182613D01*
X11700Y182912D01*
X10925Y183014D01*
D02*
G37*
G36*
X61614Y146695D02*
X60839Y146593D01*
X60117Y146294D01*
X59497Y145818D01*
X59021Y145198D01*
X58722Y144476D01*
X58620Y143701D01*
X58722Y142926D01*
X59021Y142204D01*
X59497Y141584D01*
X60085Y141133D01*
Y76083D01*
X60201Y75497D01*
X60533Y75001D01*
X62152Y73382D01*
Y71367D01*
X61564Y70916D01*
X61088Y70296D01*
X60789Y69574D01*
X60687Y68799D01*
X60789Y68024D01*
X61088Y67302D01*
X61564Y66682D01*
X62184Y66206D01*
X62906Y65907D01*
X63681Y65805D01*
X64456Y65907D01*
X65178Y66206D01*
X65798Y66682D01*
X66274Y67302D01*
X66573Y68024D01*
X66675Y68799D01*
X66573Y69574D01*
X66274Y70296D01*
X65798Y70916D01*
X65210Y71367D01*
Y74016D01*
X65094Y74601D01*
X64763Y75097D01*
X63144Y76716D01*
Y141133D01*
X63731Y141584D01*
X64207Y142204D01*
X64328Y142496D01*
X64869D01*
X65028Y142112D01*
X65504Y141492D01*
X66092Y141041D01*
Y82280D01*
X66208Y81695D01*
X66540Y81199D01*
X78795Y68943D01*
X78699Y68209D01*
X78801Y67434D01*
X79100Y66712D01*
X79576Y66092D01*
X80196Y65616D01*
X80918Y65317D01*
X81693Y65215D01*
X82468Y65317D01*
X83190Y65616D01*
X83810Y66092D01*
X84286Y66712D01*
X84585Y67434D01*
X84687Y68209D01*
X84585Y68984D01*
X84286Y69706D01*
X83810Y70326D01*
X83190Y70802D01*
X82468Y71101D01*
X81693Y71203D01*
X80958Y71106D01*
X69151Y82914D01*
Y141041D01*
X69739Y141492D01*
X70214Y142112D01*
X70513Y142834D01*
X70616Y143609D01*
X70513Y144384D01*
X70214Y145106D01*
X69739Y145727D01*
X69118Y146202D01*
X68396Y146502D01*
X67621Y146604D01*
X66847Y146502D01*
X66124Y146202D01*
X65504Y145727D01*
X65028Y145106D01*
X64907Y144814D01*
X64366D01*
X64207Y145198D01*
X63731Y145818D01*
X63111Y146294D01*
X62389Y146593D01*
X61614Y146695D01*
D02*
G37*
G36*
X34547Y59302D02*
Y57480D01*
X36368D01*
X36156Y57993D01*
X35680Y58613D01*
X35060Y59089D01*
X34547Y59302D01*
D02*
G37*
G36*
X32579D02*
X32066Y59089D01*
X31446Y58613D01*
X30970Y57993D01*
X30758Y57480D01*
X32579D01*
Y59302D01*
D02*
G37*
G36*
X36368Y55512D02*
X34547D01*
Y53691D01*
X35060Y53903D01*
X35680Y54379D01*
X36156Y54999D01*
X36368Y55512D01*
D02*
G37*
G36*
X32579D02*
X30758D01*
X30970Y54999D01*
X31446Y54379D01*
X32066Y53903D01*
X32579Y53691D01*
Y55512D01*
D02*
G37*
G36*
X15748Y72412D02*
X13910Y72230D01*
X12143Y71694D01*
X10515Y70824D01*
X9087Y69653D01*
X7916Y68225D01*
X7046Y66597D01*
X6510Y64830D01*
X6329Y62992D01*
X6510Y61155D01*
X7046Y59387D01*
X7916Y57759D01*
X9087Y56332D01*
X10515Y55160D01*
X12143Y54290D01*
X13910Y53754D01*
X15748Y53573D01*
X17586Y53754D01*
X19353Y54290D01*
X20981Y55160D01*
X22409Y56332D01*
X23580Y57759D01*
X24450Y59387D01*
X24986Y61155D01*
X25167Y62992D01*
X24986Y64830D01*
X24450Y66597D01*
X23580Y68225D01*
X22409Y69653D01*
X20981Y70824D01*
X19353Y71694D01*
X17586Y72230D01*
X15748Y72412D01*
D02*
G37*
G36*
X109449Y48860D02*
X108674Y48758D01*
X107952Y48459D01*
X107332Y47983D01*
X106881Y47396D01*
X82982D01*
X82531Y47983D01*
X81911Y48459D01*
X81188Y48758D01*
X80413Y48860D01*
X79638Y48758D01*
X78916Y48459D01*
X78296Y47983D01*
X77820Y47363D01*
X77521Y46641D01*
X77419Y45866D01*
X77521Y45091D01*
X77820Y44369D01*
X78296Y43749D01*
X78916Y43273D01*
X79638Y42974D01*
X80413Y42872D01*
X81188Y42974D01*
X81911Y43273D01*
X82531Y43749D01*
X82982Y44337D01*
X106881D01*
X107332Y43749D01*
X107952Y43273D01*
X108674Y42974D01*
X109449Y42872D01*
X110224Y42974D01*
X110946Y43273D01*
X111566Y43749D01*
X112042Y44369D01*
X112341Y45091D01*
X112443Y45866D01*
X112341Y46641D01*
X112042Y47363D01*
X111566Y47983D01*
X110946Y48459D01*
X110224Y48758D01*
X109449Y48860D01*
D02*
G37*
G36*
X87402Y27992D02*
X86678Y27897D01*
X86004Y27618D01*
X85425Y27174D01*
X84981Y26595D01*
X84701Y25920D01*
X84606Y25197D01*
X84701Y24473D01*
X84981Y23799D01*
X85425Y23220D01*
X86004Y22776D01*
X86678Y22497D01*
X87402Y22401D01*
X88125Y22497D01*
X88799Y22776D01*
X89378Y23220D01*
X89823Y23799D01*
X90102Y24473D01*
X90197Y25197D01*
X90102Y25920D01*
X89823Y26595D01*
X89378Y27174D01*
X88799Y27618D01*
X88125Y27897D01*
X87402Y27992D01*
D02*
G37*
G36*
X70079D02*
X69355Y27897D01*
X68681Y27618D01*
X68102Y27174D01*
X67658Y26595D01*
X67378Y25920D01*
X67283Y25197D01*
X67378Y24473D01*
X67658Y23799D01*
X68102Y23220D01*
X68681Y22776D01*
X69355Y22497D01*
X70079Y22401D01*
X70802Y22497D01*
X71477Y22776D01*
X72056Y23220D01*
X72500Y23799D01*
X72779Y24473D01*
X72874Y25197D01*
X72779Y25920D01*
X72500Y26595D01*
X72056Y27174D01*
X71477Y27618D01*
X70802Y27897D01*
X70079Y27992D01*
D02*
G37*
G36*
X36417Y24337D02*
Y20669D01*
X40084D01*
X40051Y20922D01*
X39574Y22076D01*
X38814Y23066D01*
X37824Y23825D01*
X36671Y24303D01*
X36417Y24337D01*
D02*
G37*
G36*
X34449D02*
X34196Y24303D01*
X33042Y23825D01*
X32052Y23066D01*
X31293Y22076D01*
X30815Y20922D01*
X30782Y20669D01*
X34449D01*
Y24337D01*
D02*
G37*
G36*
X40084Y18701D02*
X36417D01*
Y15034D01*
X36671Y15067D01*
X37824Y15544D01*
X38814Y16304D01*
X39574Y17294D01*
X40051Y18448D01*
X40084Y18701D01*
D02*
G37*
G36*
X34449D02*
X30782D01*
X30815Y18448D01*
X31293Y17294D01*
X32052Y16304D01*
X33042Y15544D01*
X34196Y15067D01*
X34449Y15034D01*
Y18701D01*
D02*
G37*
G36*
X79626Y16585D02*
Y14764D01*
X81447D01*
X81235Y15277D01*
X80759Y15897D01*
X80139Y16373D01*
X79626Y16585D01*
D02*
G37*
G36*
X77658D02*
X77145Y16373D01*
X76525Y15897D01*
X76049Y15277D01*
X75836Y14764D01*
X77658D01*
Y16585D01*
D02*
G37*
G36*
X81447Y12795D02*
X79626D01*
Y10974D01*
X80139Y11186D01*
X80759Y11662D01*
X81235Y12282D01*
X81447Y12795D01*
D02*
G37*
G36*
X77658D02*
X75836D01*
X76049Y12282D01*
X76525Y11662D01*
X77145Y11186D01*
X77658Y10974D01*
Y12795D01*
D02*
G37*
G36*
X50098Y74648D02*
X49323Y74546D01*
X48601Y74247D01*
X47981Y73771D01*
X47506Y73151D01*
X47206Y72429D01*
X47104Y71653D01*
X47206Y70879D01*
X47506Y70157D01*
X47981Y69536D01*
X48174Y69389D01*
Y9970D01*
X47702Y9355D01*
X47403Y8633D01*
X47301Y7858D01*
X47403Y7083D01*
X47702Y6361D01*
X48178Y5741D01*
X48798Y5265D01*
X49520Y4966D01*
X50295Y4864D01*
X51070Y4966D01*
X51792Y5265D01*
X52412Y5741D01*
X52888Y6361D01*
X53187Y7083D01*
X53289Y7858D01*
X53187Y8633D01*
X52888Y9355D01*
X52412Y9975D01*
X52220Y10123D01*
Y69542D01*
X52691Y70157D01*
X52991Y70879D01*
X53093Y71653D01*
X52991Y72429D01*
X52691Y73151D01*
X52216Y73771D01*
X51595Y74247D01*
X50873Y74546D01*
X50098Y74648D01*
D02*
G37*
%LPD*%
D17*
X67621Y82280D02*
Y143609D01*
Y82280D02*
X81693Y68209D01*
X63681Y68799D02*
Y74016D01*
X61614Y76083D02*
X63681Y74016D01*
X61614Y76083D02*
Y143701D01*
X80413Y45866D02*
X109449D01*
D49*
X43602Y25422D02*
Y27362D01*
X41634Y29331D02*
X43602Y27362D01*
X21949Y19980D02*
Y28178D01*
X23102Y29331D01*
X41634D01*
X21654Y19685D02*
X21949Y19980D01*
X50098Y71653D02*
X50197Y71555D01*
Y7957D02*
Y71555D01*
Y7957D02*
X50295Y7858D01*
X21626Y15720D02*
X21654Y15748D01*
X21626Y10208D02*
Y15720D01*
X10925Y85630D02*
Y180020D01*
Y85630D02*
X13957Y82598D01*
X20669D01*
X6398Y6102D02*
X17520D01*
X3051Y9449D02*
X6398Y6102D01*
X3051Y9449D02*
Y69244D01*
X3051Y309138D02*
X3051Y69244D01*
X3051Y309138D02*
X11728Y317815D01*
X67028D01*
X70866Y313976D01*
X17520Y6102D02*
X21626Y10208D01*
X70866Y300590D02*
Y313976D01*
D50*
X43307Y300590D02*
D03*
X57087D02*
D03*
X35433Y19685D02*
D03*
D51*
X70866Y300590D02*
D03*
X21654Y19685D02*
D03*
D52*
X87402Y25197D02*
D03*
X70079D02*
D03*
D53*
X79134Y84035D02*
D03*
X20669Y92598D02*
D03*
D54*
X79134Y99036D02*
D03*
X20669Y82598D02*
D03*
D55*
X43602Y25422D02*
D03*
X50295Y7858D02*
D03*
X33563Y56496D02*
D03*
X78642Y13780D02*
D03*
X103642Y183957D02*
D03*
X104035Y224508D02*
D03*
X20965Y297835D02*
D03*
X99902Y286024D02*
D03*
X16732Y251378D02*
D03*
X16929Y135236D02*
D03*
X101279Y136319D02*
D03*
X10925Y180020D02*
D03*
X67621Y143609D02*
D03*
X50098Y71653D02*
D03*
X81693Y68209D02*
D03*
X63681Y68799D02*
D03*
X61614Y143701D02*
D03*
X109449Y45866D02*
D03*
X80413D02*
D03*
M02*
